<svg width="96" height="96" viewBox="0 0 96 96" fill="none" xmlns="http://www.w3.org/2000/svg">
<path fill-rule="evenodd" clip-rule="evenodd" d="M48.1063 11.1114C27.6718 11.1114 11.1063 27.691 11.1063 48.1429C11.1063 68.5947 27.6718 85.1744 48.1063 85.1744C68.5407 85.1744 85.1063 68.5947 85.1063 48.1429C85.1063 27.691 68.5407 11.1114 48.1063 11.1114ZM5.10632 48.1429C5.10632 24.3745 24.3581 5.10632 48.1063 5.10632C71.8547 5.10632 91.1063 24.3745 91.1063 48.1429C91.1063 71.9115 71.8547 91.1795 48.1063 91.1795C24.3581 91.1795 5.10632 71.9115 5.10632 48.1429Z" fill="#B92B5D"/>
<path fill-rule="evenodd" clip-rule="evenodd" d="M28.1069 36.1327C28.1069 33.9216 29.8978 32.1293 32.1069 32.1293H32.1428C34.352 32.1293 36.1428 33.9216 36.1428 36.1327C36.1428 38.3438 34.352 40.1361 32.1428 40.1361H32.1069C29.8978 40.1361 28.1069 38.3438 28.1069 36.1327ZM60.0709 36.1327C60.0709 33.9216 61.8617 32.1293 64.0709 32.1293H64.1069C66.3161 32.1293 68.1069 33.9216 68.1069 36.1327C68.1069 38.3438 66.3161 40.1361 64.1069 40.1361H64.0709C61.8617 40.1361 60.0709 38.3438 60.0709 36.1327Z" fill="#B92B5D"/>
<path fill-rule="evenodd" clip-rule="evenodd" d="M62.8914 55.0347C63.5066 56.574 62.7582 58.3215 61.2198 58.9376L41.2198 66.9444C39.6816 67.5602 37.9357 66.8111 37.3203 65.2714C36.705 63.7321 37.4533 61.9846 38.9916 61.3685L58.9918 53.3617C60.5298 52.746 62.2758 53.495 62.8914 55.0347Z" fill="#B92B5D"/>
</svg>
